<?xml version="1.0" encoding="iso-8859-1"?>
<!-- Generator: Adobe Illustrator 19.0.0, SVG Export Plug-In . SVG Version: 6.00 Build 0)  -->
<svg version="1.1" id="Capa_1" xmlns="http://www.w3.org/2000/svg" xmlns:xlink="http://www.w3.org/1999/xlink" x="0px" y="0px"
	 viewBox="0 0 512 512" style="enable-background:new 0 0 512 512;" xml:space="preserve">
<g transform="matrix(1.25 0 0 -1.25 0 45)">
	<g>
		<g>
			<path style="fill:#3B88C3;" d="M409.6-328.089c0-25.134-20.378-45.511-45.511-45.511H45.511C20.378-373.6,0-353.222,0-328.089
				V-9.511C0,15.622,20.378,36,45.511,36h318.578C389.222,36,409.6,15.622,409.6-9.511V-328.089z"/>
			<path style="fill:#FFFFFF;" d="M262.713-213.515c5.985,13.414,8.465,28.922,8.465,45.158c0,41.973-22.232,81.135-66.332,81.135
				c-44.089,0-66.321-38.446-66.321-81.135c0-43.031,21.527-81.146,66.321-81.146c8.112,0,15.531,1.07,22.574,2.48l-12.686,12.345
				c-3.891,3.527-6.713,9.17-6.713,14.108c0,13.756,9.535,25.395,23.996,25.395c4.938,0,9.159-1.764,13.403-4.585L262.713-213.515z
				 M266.934-282.657c-17.283-9.876-38.093-15.519-62.089-15.519c-71.612,0-121.344,56.798-121.344,129.82
				c0,73.375,49.38,129.82,121.344,129.82c70.906,0,121.355-58.209,121.355-129.82c0-31.05-8.112-59.267-23.643-81.488
				l20.116-17.294c6.702-5.996,12.345-11.639,12.345-21.527c0-12.333-12.345-22.221-24.326-22.221
				c-7.782,0-14.108,3.186-23.643,11.298L266.934-282.657L266.934-282.657z"/>
		</g>
	</g>
</g>
<g>
</g>
<g>
</g>
<g>
</g>
<g>
</g>
<g>
</g>
<g>
</g>
<g>
</g>
<g>
</g>
<g>
</g>
<g>
</g>
<g>
</g>
<g>
</g>
<g>
</g>
<g>
</g>
<g>
</g>
</svg>
